<svg id="Layer_1" data-name="Layer 1" xmlns="http://www.w3.org/2000/svg" viewBox="0 0 331.84 366.56"><defs><style>.cls-1{fill:#ffcc29;}.cls-2{fill:#231f20;}</style></defs><title>partial-logo</title><path class="cls-1" d="M322.78,118.22l0.06,130a44.33,44.33,0,0,1-22.15,38.4l-112.53,65a44.33,44.33,0,0,1-44.33,0L31.24,286.72A44.33,44.33,0,0,1,9.06,248.34L9,118.36A44.33,44.33,0,0,1,31.15,80l112.53-65a44.33,44.33,0,0,1,44.33,0L300.6,79.84A44.33,44.33,0,0,1,322.78,118.22Z" transform="translate(0)"/><path class="cls-2" d="M166,366.56a53.31,53.31,0,0,1-26.64-7.11L26.74,294.51A53.48,53.48,0,0,1,.06,248.34L0,118.37a53.48,53.48,0,0,1,26.64-46.2l112.53-65a53.48,53.48,0,0,1,53.33,0L305.09,72a53.48,53.48,0,0,1,26.69,46.17h0l0.06,130a53.47,53.47,0,0,1-26.64,46.2l-112.53,65A53.32,53.32,0,0,1,166,366.56ZM165.86,18a35.32,35.32,0,0,0-17.68,4.73l-112.53,65A35.43,35.43,0,0,0,18,118.36l0.06,130a35.43,35.43,0,0,0,17.68,30.59l112.59,64.94a35.43,35.43,0,0,0,35.33,0l112.53-65a35.43,35.43,0,0,0,17.65-30.6l-0.06-130h0A35.43,35.43,0,0,0,296.1,87.64L183.51,22.7A35.32,35.32,0,0,0,165.86,18Z" transform="translate(0)"/><path class="cls-2" d="M265.25,297.87l-0.07-150.81a35.42,35.42,0,0,0-17.68-30.59l9-15.59a53.48,53.48,0,0,1,26.69,46.17l0.07,150.81h-18Z" transform="translate(0)"/><rect class="cls-2" x="175.34" y="-7.96" width="18" height="155.89" transform="translate(32.07 195.25) rotate(-60.23)"/><path class="cls-2" d="M228.67,334l-18,0,0.17-159.24a35.42,35.42,0,0,0-17.68-30.57l9-15.59a53.48,53.48,0,0,1,26.69,46.17Z" transform="translate(0)"/><rect class="cls-2" x="125.51" y="27.04" width="18" height="145.81" transform="translate(-19.27 166.53) rotate(-60.03)"/><path class="cls-2" d="M158.36,354.29l-0.07-145.81a35.43,35.43,0,0,0-17.68-30.59l9-15.59a53.48,53.48,0,0,1,26.69,46.17l0.07,145.81h-18Z" transform="translate(0)"/><rect class="cls-2" x="72.88" y="60.92" width="18" height="145.8" transform="translate(-74.94 138.26) rotate(-60.16)"/></svg>